<svg width="24" height="20" viewBox="0 0 24 20" fill="none" xmlns="http://www.w3.org/2000/svg">
<path d="M14.3128 19.8395C14.3651 19.9299 14.4618 19.9856 14.5664 19.9856H16.8444C17.0698 19.9856 17.2107 19.742 17.098 19.5472L8.82308 5.24283C8.71037 5.048 8.4286 5.048 8.31589 5.24283L7.09981 7.34499C7.09518 7.35299 7.09518 7.36285 7.09981 7.37086L7.10128 7.37339C7.1106 7.38951 7.09894 7.40966 7.08029 7.40966C7.07163 7.40966 7.06363 7.41427 7.0593 7.42176L0.0396396 19.5617C-0.0730193 19.7565 0.0678714 20 0.293265 20H10.9633C11.1887 20 11.3296 19.7565 11.2169 19.5616L10.1254 17.6749C10.0731 17.5845 9.97646 17.5288 9.87184 17.5288H4.4145C4.3018 17.5288 4.23135 17.407 4.28771 17.3096L8.4417 10.1289C8.49805 10.0315 8.63894 10.0315 8.6953 10.1289L14.3128 19.8395Z" fill="#835BD9"/>
<path d="M10.1282 2.10994C10.0759 2.20037 10.0759 2.31177 10.1282 2.40219L20.2155 19.8395C20.2678 19.9299 20.3645 19.9856 20.4691 19.9856H22.7412C22.9666 19.9856 23.1075 19.742 22.9948 19.5472L11.7715 0.146125C11.6588 -0.0487087 11.377 -0.0487083 11.2643 0.146126L10.1282 2.10994Z" fill="#835BD9"/>
</svg>
