<svg width="100" height="100" viewBox="0 0 100 100" fill="none" xmlns="http://www.w3.org/2000/svg">
<path fill-rule="evenodd" clip-rule="evenodd" d="M35.3219 9.39375C34.2718 9.47709 33.2494 9.77133 32.3156 10.2589C31.3819 10.7464 30.556 11.4172 29.8875 12.2313C28.8156 13.5438 28.2875 15.1375 28.2031 16.7719C27.3463 16.664 26.478 16.6872 25.6281 16.8406C24.3396 17.0969 23.1278 17.6477 22.0875 18.45C21.0475 19.2549 20.2059 20.2875 19.6273 21.4685C19.0487 22.6495 18.7486 23.9474 18.75 25.2625L18.7688 28.0344L18.7625 28.0656V28.2875L18.7563 28.9344L18.75 32.0031V34.4438C18.75 36.6938 20.0125 38.6406 21.85 39.7V80.2812C21.85 84.25 25.0781 87.5 29.0406 87.5H61.5594C65.5219 87.5 68.75 84.25 68.75 80.2812V75.0625H75.5188C77.0342 75.0633 78.4882 74.4636 79.5624 73.3947C80.6365 72.3258 81.2434 70.8748 81.25 69.3594V43.2063C81.2442 41.6903 80.6377 40.2385 79.5635 39.1689C78.4892 38.0993 77.0347 37.4992 75.5188 37.5H68.75V32.7938C70.2875 31.6375 71.4063 29.9344 71.7594 27.9188C72.0766 26.0713 71.7198 24.1713 70.7539 22.5647C69.7881 20.9582 68.2774 19.752 66.4969 19.1656C66.1557 18.0951 65.5709 17.1184 64.7885 16.3121C64.006 15.5058 63.0473 14.8919 61.9875 14.5188C60.6847 14.0757 59.283 14.0118 57.9453 14.3343C56.6076 14.6568 55.389 15.3526 54.4313 16.3406C53.6785 15.3121 52.7243 14.4475 51.6267 13.7995C50.5291 13.1516 49.3111 12.7339 48.0469 12.5719C46.2327 12.3509 44.3935 12.666 42.7563 13.4781C42.2166 12.4658 41.4596 11.5855 40.5394 10.9004C39.6193 10.2153 38.5589 9.74241 37.4344 9.51563C36.7391 9.37834 36.0285 9.33942 35.3219 9.39375ZM35.5656 12.5125C36.5311 12.4382 37.4958 12.6671 38.3249 13.1674C39.154 13.6677 39.8063 14.4143 40.1906 15.3031C39.8687 15.6277 39.571 15.9755 39.3 16.3438C39.1789 16.5098 39.0918 16.698 39.0434 16.8977C38.9951 17.0974 38.9866 17.3046 39.0184 17.5076C39.0825 17.9175 39.3069 18.2852 39.6422 18.5297C39.9774 18.7742 40.3961 18.8755 40.806 18.8113C41.009 18.7795 41.2038 18.7081 41.3791 18.6011C41.5545 18.494 41.7071 18.3535 41.8281 18.1875C42.4833 17.2881 43.3671 16.5802 44.3879 16.1372C45.4087 15.6942 46.5293 15.5322 47.6338 15.668C48.7382 15.8038 49.7863 16.2324 50.6694 16.9095C51.5524 17.5866 52.2384 18.4874 52.6563 19.5188C52.6525 19.8892 52.7804 20.2489 53.0173 20.5338C53.2542 20.8186 53.5846 21.01 53.9495 21.0738C54.3144 21.1377 54.6901 21.0697 55.0096 20.8822C55.3291 20.6947 55.5716 20.3997 55.6938 20.05C55.8675 19.532 56.1424 19.0537 56.5025 18.6428C56.8627 18.2319 57.3008 17.8966 57.7916 17.6565C58.2823 17.4163 58.8159 17.2761 59.3613 17.2439C59.9067 17.2116 60.4531 17.2881 60.9688 17.4688C63.1469 18.2219 64.2938 20.575 63.55 22.7813C63.4776 22.9772 63.4452 23.1857 63.4548 23.3943C63.4643 23.603 63.5156 23.8076 63.6056 23.9961C63.6956 24.1846 63.8225 24.3532 63.9788 24.4918C64.1351 24.6304 64.3175 24.7363 64.5154 24.8032C64.7133 24.87 64.9226 24.8965 65.1309 24.8811C65.3393 24.8657 65.5424 24.8087 65.7283 24.7134C65.9142 24.6181 66.0791 24.4866 66.2132 24.3264C66.3474 24.1663 66.4481 23.981 66.5094 23.7813C66.6281 23.4313 66.6906 23.075 66.7531 22.7219C68.2094 23.7406 69.0031 25.5219 68.6781 27.375C68.4794 28.5321 67.8517 29.5718 66.9203 30.2865C65.9889 31.0013 64.8223 31.3386 63.6531 31.2313C62.483 31.1323 61.393 30.5963 60.6003 29.73C59.8075 28.8637 59.37 27.7306 59.375 26.5563C59.3791 26.2595 59.2987 25.9678 59.143 25.7151C58.9874 25.4625 58.763 25.2594 58.4962 25.1295C58.2294 24.9997 57.9311 24.9486 57.6362 24.9821C57.3414 25.0156 57.0622 25.1324 56.8313 25.3188C56.135 25.1131 55.4135 25.0058 54.6875 25C52.6154 25.0033 50.6293 25.8283 49.1647 27.2941C47.7001 28.7599 46.8767 30.7467 46.875 32.8188C46.8736 32.9396 46.8862 33.0602 46.9125 33.1781C46.8869 33.293 46.8743 33.4104 46.875 33.5281V40.7469C46.875 42.4156 45.5313 43.75 43.75 43.75C41.9688 43.75 40.625 42.4156 40.625 40.75V32.8625C40.625 29.4781 37.7969 26.7375 34.3938 26.7375H34.3563C30.95 26.7375 28.125 29.4688 28.125 32.8563V33.5281C28.1194 33.5665 28.1152 33.6051 28.1125 33.6438L28.0938 34.4125C28.0936 34.424 28.0936 34.4354 28.0938 34.4469C28.0938 36.0969 26.7469 37.4344 24.9938 37.4344H24.975C24.5767 37.4569 24.1781 37.398 23.8033 37.2612C23.4286 37.1244 23.0857 36.9127 22.7956 36.639C22.5054 36.3652 22.2742 36.0352 22.1159 35.669C21.9576 35.3029 21.8756 34.9083 21.875 34.5094V32.2375H21.8938V28.3125L21.875 25.2625C21.875 23.5594 22.6594 21.9563 24 20.9219C25.3344 19.8906 27.0563 19.55 28.6813 19.9844C28.7 20.0375 28.7 20.0938 28.7219 20.1469C28.8814 20.5298 29.1865 20.8336 29.5701 20.9916C29.9537 21.1495 30.3843 21.1486 30.7672 20.9891C31.1501 20.8295 31.4539 20.5244 31.6119 20.1408C31.7698 19.7573 31.7689 19.3267 31.6094 18.9438C31.2842 18.1658 31.1772 17.3139 31.3 16.4797C31.4228 15.6455 31.7707 14.8606 32.3063 14.2094C33.125 13.2094 34.3063 12.6094 35.5656 12.5125ZM54.6875 28.125C55.3219 28.125 55.9469 28.2938 56.5438 28.5531C56.952 30.1025 57.8266 31.4889 59.0491 32.5247C60.2715 33.5605 61.7828 34.1955 63.3781 34.3438C64.15 34.4125 64.8969 34.3313 65.625 34.1781V80.2812C65.625 82.5844 63.8344 84.3781 61.5625 84.3781H29.0375C26.7625 84.3781 24.975 82.5844 24.975 80.2844V40.5562H24.9906C28.3906 40.5562 31.2156 37.825 31.2156 34.4438L31.2281 33.8813C31.2425 33.7966 31.2498 33.7109 31.25 33.625V32.8563C31.25 31.2031 32.6 29.8563 34.3563 29.8563H34.3938C36.15 29.8563 37.5 31.2031 37.5 32.8563V40.7469C37.5 44.1375 40.3344 46.875 43.75 46.875C47.1656 46.875 50 44.1375 50 40.75V33.5281C50.0017 33.4062 49.9891 33.2846 49.9625 33.1656C49.9879 33.0518 50.0005 32.9354 50 32.8188C49.9992 32.2027 50.1198 31.5924 50.355 31.023C50.5902 30.4536 50.9354 29.9361 51.3707 29.5001C51.8061 29.0642 52.3231 28.7184 52.8922 28.4824C53.4614 28.2465 54.0714 28.125 54.6875 28.125ZM68.75 40.625H75.5188C77.0813 40.625 78.125 41.6688 78.125 43.2063V69.3625C78.125 70.8969 77.0813 71.9406 75.5188 71.9406H68.75V40.625ZM32.7875 47.9562C32.5823 47.9595 32.3798 48.0032 32.1914 48.0847C32.0031 48.1663 31.8327 48.2841 31.6899 48.4315C31.5471 48.5789 31.4348 48.753 31.3593 48.9439C31.2838 49.1347 31.2467 49.3386 31.25 49.5438V77.4906C31.25 77.905 31.4146 78.3024 31.7076 78.5955C32.0007 78.8885 32.3981 79.0531 32.8125 79.0531C33.2269 79.0531 33.6243 78.8885 33.9174 78.5955C34.2104 78.3024 34.375 77.905 34.375 77.4906V49.5438C34.3784 49.3343 34.3396 49.1264 34.261 48.9323C34.1825 48.7381 34.0657 48.5618 33.9176 48.4137C33.7695 48.2656 33.5931 48.1488 33.399 48.0702C33.2049 47.9916 32.9969 47.9529 32.7875 47.9562ZM45.2875 47.9562C45.0823 47.9595 44.8798 48.0032 44.6914 48.0847C44.5031 48.1663 44.3327 48.2841 44.1899 48.4315C44.0471 48.5789 43.9348 48.753 43.8593 48.9439C43.7838 49.1347 43.7467 49.3386 43.75 49.5438V77.4906C43.75 77.905 43.9146 78.3024 44.2077 78.5955C44.5007 78.8885 44.8981 79.0531 45.3125 79.0531C45.7269 79.0531 46.1243 78.8885 46.4174 78.5955C46.7104 78.3024 46.875 77.905 46.875 77.4906V49.5438C46.8784 49.3343 46.8396 49.1264 46.761 48.9323C46.6825 48.7381 46.5657 48.5618 46.4176 48.4137C46.2695 48.2656 46.0931 48.1488 45.899 48.0702C45.7049 47.9916 45.4969 47.9529 45.2875 47.9562ZM57.7875 47.9562C57.5823 47.9595 57.3798 48.0032 57.1914 48.0847C57.0031 48.1663 56.8327 48.2841 56.6899 48.4315C56.5471 48.5789 56.4348 48.753 56.3593 48.9439C56.2838 49.1347 56.2467 49.3386 56.25 49.5438V77.4906C56.25 77.905 56.4146 78.3024 56.7077 78.5955C57.0007 78.8885 57.3981 79.0531 57.8125 79.0531C58.2269 79.0531 58.6243 78.8885 58.9174 78.5955C59.2104 78.3024 59.375 77.905 59.375 77.4906V49.5438C59.3784 49.3343 59.3396 49.1264 59.261 48.9323C59.1825 48.7381 59.0657 48.5618 58.9176 48.4137C58.7695 48.2656 58.5931 48.1488 58.399 48.0702C58.2049 47.9916 57.9969 47.9529 57.7875 47.9562Z" fill="white"/>
</svg>
